<?xml version="1.0" encoding="UTF-8"?>
<svg id="Layer_2" data-name="Layer 2" xmlns="http://www.w3.org/2000/svg" viewBox="0 0 599.31 599.31">
  <defs>
    <style>
      .cls-1 {
        fill: #fff;
        stroke-width: 0px;
      }
    </style>
  </defs>
  <g id="Layer_1-2" data-name="Layer 1">
    <path class="cls-1" d="m489.48,363.48c-26.74,78.98-101.47,135.83-189.48,135.83-110.78,0-200-89.22-200-200,0-88.01,56.85-162.74,135.83-189.48,38.44-13.01,64.17-49.27,64.17-89.85h0c0-11.53-9.75-20.73-21.26-19.92C122.97,10.95,0,140.76,0,299.31s134.45,300,300,300c158.54,0,288.35-122.97,299.26-278.74.81-11.5-8.39-21.26-19.92-21.26h0c-40.58,0-76.84,25.73-89.85,64.17Z"/>
  </g>
</svg>