<?xml version="1.0" encoding="UTF-8"?>
<svg id="Layer_2" data-name="Layer 2" xmlns="http://www.w3.org/2000/svg" viewBox="0 0 294.68 299.64">
  <defs>
    <style>
      .cls-1 {
        fill: #fff;
        stroke-width: 0px;
      }
    </style>
  </defs>
  <g id="Layer_1-2" data-name="Layer 1">
    <path class="cls-1" d="m45.1,140.8c4.69-51.38,48.24-91.52,101.01-90.79,53.86.75,97.82,44.71,98.57,98.57.65,46.84-30.91,86.42-73.94,98-15.28,4.11-26.05,17.74-26.05,33.57v9.45c0,5.83,4.95,10.44,10.77,10.03,77.81-5.52,139.23-70.4,139.23-149.62C294.68,67.24,227.44,0,144.68,0,77.6,0,20.81,44.04,1.62,104.77c-7.08,22.43,9.95,45.23,33.47,45.23h0c5.22,0,9.53-4,10.01-9.2Z"/>
  </g>
</svg>